<svg width="149" height="129" viewBox="0 0 149 129" fill="none" xmlns="http://www.w3.org/2000/svg">
<mask id="mask0_814_10239" style="mask-type:luminance" maskUnits="userSpaceOnUse" x="0" y="0" width="149" height="129">
<path d="M0.0195312 0.280029H148.82V128.92H0.0195312V0.280029Z" fill="white"/>
</mask>
<g mask="url(#mask0_814_10239)">
<path d="M77.7729 10.457L81.0749 119.464H71.4609L74.7629 10.457H77.7729Z" fill="#FFF6E9" stroke="#E29A66"/>
<path d="M101.898 94.5979L124.098 24.3979L146.298 94.5979H101.898Z" fill="#FFF6E9"/>
<path d="M120.064 57.2549C119.988 57.3195 119.938 57.4108 119.926 57.5104C119.914 57.6099 119.94 57.7104 119.999 57.7916C120.058 57.8728 120.145 57.9286 120.244 57.948C120.342 57.9674 120.444 57.9487 120.529 57.8959L122.817 56.2399V57.4379C122.817 57.5124 122.838 57.5854 122.878 57.6487C122.917 57.7119 122.973 57.7627 123.04 57.7954C123.107 57.828 123.182 57.8412 123.256 57.8333C123.33 57.8254 123.401 57.7969 123.459 57.7509L125.371 56.4379L125.388 57.6279C125.321 57.6749 125.51 58.0249 125.789 58.0199C125.883 58.0182 125.973 57.9839 126.043 57.9229L127.758 56.6829L127.393 58.2189C127.374 58.3196 127.394 58.424 127.449 58.5103C127.505 58.5965 127.592 58.6579 127.691 58.6816C127.791 58.7053 127.896 58.6894 127.985 58.6372C128.073 58.5851 128.138 58.5007 128.165 58.4019L128.776 55.8299C128.795 55.7511 128.79 55.6684 128.76 55.5929C128.731 55.5175 128.679 55.4529 128.611 55.4078C128.544 55.3628 128.465 55.3395 128.384 55.3412C128.303 55.3428 128.224 55.3692 128.158 55.4169L128.159 55.4179L126.167 56.8579L126.151 55.7209C126.157 55.6463 126.141 55.5716 126.106 55.5056C126.071 55.4395 126.018 55.3847 125.953 55.3475C125.888 55.3103 125.814 55.2922 125.739 55.2953C125.664 55.2984 125.592 55.3225 125.53 55.3649H125.531L123.61 56.6849V55.4629C123.611 55.3896 123.591 55.3177 123.553 55.255C123.515 55.1924 123.46 55.1416 123.395 55.1083C123.33 55.075 123.256 55.0605 123.183 55.0664C123.11 55.0724 123.04 55.0985 122.981 55.1419L123.214 55.4629L122.982 55.1429L120.064 57.2549ZM120.889 53.5859C120.804 53.6474 120.747 53.7403 120.73 53.844C120.714 53.9477 120.739 54.0538 120.8 54.1389C120.862 54.224 120.955 54.2812 121.058 54.2979C121.162 54.3146 121.268 54.2894 121.353 54.2279L123.641 52.5699V53.7679C123.641 53.8424 123.662 53.9155 123.702 53.9787C123.741 54.0419 123.797 54.0927 123.864 54.1254C123.931 54.158 124.006 54.1712 124.08 54.1633C124.154 54.1554 124.225 54.1269 124.283 54.0809L126.194 52.7679L126.212 53.9589C126.146 54.0059 126.334 54.3549 126.612 54.3509C126.706 54.3495 126.796 54.3155 126.866 54.2549L128.581 53.0149L128.217 54.5509C128.205 54.6016 128.203 54.6542 128.212 54.7056C128.22 54.757 128.238 54.8063 128.266 54.8506C128.293 54.895 128.329 54.9335 128.371 54.964C128.413 54.9945 128.461 55.0164 128.512 55.0284C128.563 55.0404 128.615 55.0423 128.667 55.034C128.718 55.0257 128.767 55.0074 128.812 54.98C128.856 54.9527 128.895 54.9169 128.925 54.8747C128.956 54.8324 128.977 54.7846 128.989 54.7339L129.6 52.1619C129.62 52.083 129.614 52 129.585 51.9243C129.555 51.8487 129.503 51.7839 129.435 51.7388C129.368 51.6937 129.288 51.6705 129.207 51.6723C129.126 51.6741 129.047 51.7008 128.981 51.7489L128.982 51.7509L126.991 53.1899L126.974 52.0539C126.98 51.9795 126.964 51.905 126.929 51.8391C126.894 51.7732 126.841 51.7186 126.776 51.6814C126.711 51.6442 126.637 51.6261 126.563 51.629C126.488 51.6319 126.416 51.6558 126.354 51.6979L124.434 53.0179V51.7959C124.434 51.7228 124.414 51.6512 124.376 51.5889C124.338 51.5266 124.283 51.476 124.218 51.4427C124.153 51.4094 124.08 51.3947 124.007 51.4002C123.935 51.4057 123.865 51.4312 123.805 51.4739L124.037 51.7959L123.805 51.4759L120.889 53.5859ZM126.695 71.6399C126.829 71.6399 126.957 71.587 127.051 71.4927C127.145 71.3985 127.198 71.2707 127.198 71.1374C127.198 71.0041 127.145 70.8763 127.051 70.7821C126.957 70.6878 126.829 70.6349 126.695 70.6349L124.274 70.6279L124.252 70.4449C124.252 70.4309 124.252 70.4169 124.25 70.4029H124.248C124.136 69.2185 124.478 68.0356 125.203 67.0929C125.343 66.9116 125.499 66.7369 125.669 66.5689C125.765 66.4753 125.819 66.3477 125.82 66.2141C125.821 66.0806 125.769 65.9521 125.675 65.8569C125.582 65.7617 125.454 65.7076 125.321 65.7064C125.187 65.7053 125.059 65.7573 124.963 65.8509C124.759 66.0509 124.574 66.2599 124.406 66.4779C123.526 67.6207 123.112 69.0548 123.247 70.4909L123.747 70.4479L123.245 70.4929L123.251 70.5399L123.26 70.6249L121.683 70.6199L121.691 70.5399L121.698 70.4929L121.195 70.4479L121.695 70.4909C121.831 69.0548 121.417 67.6207 120.536 66.4779C120.366 66.2565 120.179 66.0473 119.979 65.8519C119.933 65.8033 119.877 65.7645 119.815 65.7378C119.753 65.7112 119.687 65.6972 119.619 65.6968C119.552 65.6963 119.485 65.7094 119.423 65.7352C119.361 65.761 119.305 65.7991 119.257 65.8471C119.21 65.8951 119.173 65.9521 119.148 66.0147C119.124 66.0773 119.112 66.1443 119.113 66.2116C119.115 66.2789 119.13 66.3452 119.158 66.4066C119.185 66.468 119.225 66.5232 119.274 66.5689C119.446 66.7369 119.601 66.9116 119.74 67.0929C120.466 68.0356 120.808 69.2185 120.695 70.4029H120.693L120.691 70.4449L120.67 70.6179L118.248 70.6099C118.115 70.6099 117.987 70.6628 117.893 70.7571C117.799 70.8513 117.746 70.9791 117.746 71.1124C117.746 71.2457 117.799 71.3735 117.893 71.4677C117.987 71.562 118.115 71.6149 118.248 71.6149L120.43 71.6219C120.156 72.3955 119.716 73.0995 119.139 73.6839C118.938 73.8902 118.722 74.0817 118.493 74.2569C118.438 74.2962 118.392 74.3462 118.356 74.4039C118.321 74.4616 118.298 74.5258 118.288 74.5927C118.278 74.6596 118.282 74.7278 118.299 74.7933C118.316 74.8587 118.346 74.9201 118.387 74.9736C118.429 75.0272 118.48 75.0719 118.539 75.105C118.598 75.1381 118.663 75.159 118.73 75.1664C118.798 75.1738 118.866 75.1676 118.931 75.1481C118.995 75.1286 119.055 75.0962 119.107 75.0529C119.374 74.8486 119.626 74.6254 119.86 74.3849C120.623 73.6143 121.181 72.6652 121.483 71.6239L123.461 71.6299C123.764 72.6689 124.322 73.6159 125.083 74.3849C125.313 74.6209 125.564 74.8436 125.836 75.0529C125.889 75.0932 125.948 75.1228 126.012 75.1401C126.076 75.1573 126.142 75.1619 126.208 75.1534C126.273 75.145 126.336 75.1237 126.394 75.0908C126.451 75.058 126.501 75.0142 126.541 74.9619C126.582 74.9096 126.611 74.8499 126.629 74.7862C126.646 74.7225 126.65 74.656 126.642 74.5906C126.633 74.5251 126.612 74.4619 126.579 74.4047C126.546 74.3474 126.503 74.2972 126.45 74.2569C126.222 74.0817 126.006 73.8902 125.804 73.6839C125.231 73.1025 124.793 72.4028 124.518 71.6339L126.695 71.6399ZM25.9754 34.8099C25.8999 34.7158 25.7918 34.6537 25.6725 34.6357C25.5532 34.6178 25.4316 34.6454 25.3317 34.7131C25.2319 34.7808 25.1612 34.8836 25.1337 35.001C25.1062 35.1185 25.124 35.2419 25.1834 35.3469L26.1114 36.7169L25.3254 39.7109C25.3013 39.8312 25.3242 39.9562 25.3894 40.0602C25.4546 40.1641 25.5571 40.2392 25.6759 40.2699C25.7947 40.3007 25.9207 40.2847 26.0282 40.2254C26.1356 40.166 26.2162 40.0678 26.2534 39.9509L27.0834 36.7869C27.1083 36.7162 27.1163 36.6407 27.1067 36.5664C27.0972 36.4921 27.0704 36.421 27.0284 36.3589L27.0264 36.3599L25.9754 34.8099Z" fill="#572083"/>
<path d="M26.1832 36.45C26.1568 36.5091 26.1427 36.5728 26.1416 36.6375C26.1405 36.7021 26.1525 36.7664 26.1769 36.8263C26.2013 36.8861 26.2376 36.9405 26.2835 36.986C26.3295 37.0315 26.3842 37.0672 26.4443 37.091C26.5045 37.1147 26.5688 37.1261 26.6335 37.1244C26.6981 37.1226 26.7617 37.1078 26.8205 37.0808C26.8793 37.0538 26.9319 37.0152 26.9754 36.9673C27.0188 36.9194 27.0521 36.8631 27.0732 36.802C27.1742 36.549 27.6782 36.062 28.2062 35.812C28.3742 35.732 28.5322 35.685 28.6612 35.69C28.7332 35.693 28.7982 35.72 28.8452 35.78C28.9842 35.96 29.0582 36.332 29.0182 36.978L29.0102 36.994C28.7392 37.409 27.9072 38.768 27.8672 41.794L25.7692 43.56C25.6827 43.6448 25.6313 43.7591 25.6256 43.8801C25.6198 44.0011 25.6599 44.1198 25.738 44.2124C25.8161 44.305 25.9263 44.3647 26.0465 44.3795C26.1667 44.3942 26.2881 44.363 26.3862 44.292L28.6202 42.414C28.6844 42.3699 28.7369 42.3107 28.7732 42.2417C28.8094 42.1727 28.8283 42.096 28.8282 42.018C28.8282 39.121 29.5672 37.894 29.8102 37.521L29.8372 37.484C29.9042 37.382 29.9472 37.318 29.9642 37.211L29.9692 37.163C30.0432 36.186 29.8892 35.564 29.6042 35.197C29.4979 35.0559 29.3608 34.9409 29.2032 34.8608C29.0457 34.7807 28.8719 34.7377 28.6952 34.735C28.4012 34.723 28.0932 34.807 27.7972 34.947C27.0722 35.29 26.3472 36.036 26.1832 36.45Z" fill="#572083"/>
<path d="M30.2081 39.303C30.488 39.3026 30.7651 39.3574 31.0237 39.4643C31.2823 39.5712 31.5173 39.7281 31.7151 39.926C31.913 40.1238 32.0699 40.3588 32.1768 40.6174C32.2837 40.876 32.3385 41.1532 32.3381 41.433C32.3385 41.7128 32.2837 41.99 32.1768 42.2486C32.0699 42.5072 31.913 42.7421 31.7151 42.94C31.5173 43.1379 31.2823 43.2947 31.0237 43.4016C30.7651 43.5086 30.488 43.5634 30.2081 43.563C29.9283 43.5635 29.6511 43.5088 29.3924 43.4019C29.1337 43.2951 28.8987 43.1382 28.7008 42.9403C28.5029 42.7424 28.346 42.5074 28.2392 42.2487C28.1323 41.9901 28.0776 41.7128 28.0781 41.433C28.0776 41.1531 28.1323 40.8759 28.2392 40.6172C28.346 40.3586 28.5029 40.1236 28.7008 39.9257C28.8987 39.7278 29.1337 39.5709 29.3924 39.464C29.6511 39.3572 29.9283 39.3025 30.2081 39.303ZM31.0341 40.607C30.9258 40.4981 30.797 40.4117 30.6552 40.3528C30.5133 40.2938 30.3612 40.2635 30.2076 40.2635C30.054 40.2635 29.9019 40.2938 29.7601 40.3528C29.6183 40.4117 29.4895 40.4981 29.3811 40.607C29.2723 40.7153 29.1858 40.8441 29.1269 40.986C29.0679 41.1278 29.0376 41.2799 29.0376 41.4335C29.0376 41.5871 29.0679 41.7392 29.1269 41.881C29.1858 42.0228 29.2723 42.1516 29.3811 42.26C29.4895 42.3689 29.6183 42.4553 29.7601 42.5142C29.9019 42.5732 30.054 42.6035 30.2076 42.6035C30.3612 42.6035 30.5133 42.5732 30.6552 42.5142C30.797 42.4553 30.9258 42.3689 31.0341 42.26C31.143 42.1516 31.2294 42.0228 31.2884 41.881C31.3473 41.7392 31.3777 41.5871 31.3777 41.4335C31.3777 41.2799 31.3473 41.1278 31.2884 40.986C31.2294 40.8441 31.143 40.7153 31.0341 40.607Z" fill="#572083"/>
<path d="M68.5479 17.584C71.9095 16.9228 75.1578 15.7758 78.1889 14.179L78.2689 14.137L78.2709 14.136C78.7302 13.8912 79.1319 13.551 79.4491 13.1383C79.7663 12.7257 79.9916 12.25 80.1101 11.7431C80.2285 11.2363 80.2373 10.71 80.1359 10.1995C80.0344 9.68902 79.8251 9.20607 79.5219 8.78302C78.9535 7.99155 78.0946 7.45752 77.1334 7.29784C76.1721 7.13816 75.1867 7.36583 74.3929 7.93102C72.1289 9.53379 69.643 10.7975 67.0139 11.682L68.5479 17.584ZM68.5479 17.584C65.1889 18.255 61.7539 18.838 58.5059 18.637L68.5479 17.584ZM68.5479 17.584L58.5059 18.637L68.5479 17.584ZM58.5059 18.637L58.2889 18.624C55.0209 18.424 51.6509 18.218 48.6519 17.36C47.1102 16.9129 45.5913 16.3903 44.1009 15.794L44.0979 15.792M58.5059 18.637L44.0979 15.792L58.5059 18.637ZM44.0979 15.792C42.6226 15.2195 41.1683 14.5941 39.7379 13.917H39.7359M44.0979 15.792L39.7359 13.917L44.0979 15.792ZM39.7359 13.917C36.8806 12.5737 34.1502 10.9784 31.5769 9.15202L39.7359 13.917ZM39.7369 13.916L31.5769 9.15202L39.7369 13.916ZM31.5769 9.15202C31.0526 8.77878 30.5358 8.39504 30.0269 8.00102L31.5769 9.15202ZM31.5769 9.15202L30.0269 8.00102L31.5769 9.15202ZM30.0269 8.00102L30.0219 7.99702L30.0269 8.00102ZM30.0269 8.00102L30.0219 7.99702L30.0269 8.00102ZM30.0219 7.99702C29.6923 7.74734 29.3676 7.49129 29.0479 7.22902L30.0219 7.99702ZM30.0219 7.99702L29.0479 7.22902L30.0219 7.99702ZM29.0479 7.22902L29.0449 7.22702L29.0479 7.22902ZM29.0469 7.22902L29.0449 7.22702L29.0469 7.22902ZM29.0449 7.22702C28.4729 6.76702 27.9132 6.29469 27.3659 5.81002L29.0449 7.22702ZM29.0449 7.22702L27.3659 5.81002L29.0449 7.22702ZM27.3659 5.81002L27.3639 5.80802L27.3659 5.81002ZM27.3659 5.81002L27.3639 5.80802L27.3659 5.81002ZM27.3639 5.80802C26.6423 5.17632 25.9387 4.52439 25.2539 3.85302C25.3959 3.61102 25.5799 3.32102 25.7759 3.04302C25.9341 2.81526 26.1078 2.59874 26.2959 2.39502C28.3728 4.05175 30.5713 5.54997 32.8729 6.87702M27.3629 5.80702L45.4329 12.036L27.3629 5.80702ZM45.4329 12.036C43.9819 11.636 42.5379 11.176 41.1179 10.666C38.2625 9.65051 35.5032 8.38249 32.8729 6.87702M45.4329 12.036L45.4429 12.038L45.4329 12.036ZM45.4329 12.036L45.4429 12.038L45.4329 12.036ZM32.8729 6.87702L33.1219 6.44302L32.8739 6.87802L32.8729 6.87702ZM45.4429 12.038C46.8929 12.408 48.3522 12.7067 49.8209 12.934H49.8239M45.4429 12.038L49.8239 12.935L45.4429 12.038ZM49.8239 12.935C52.7569 13.372 55.7169 13.525 58.6159 13.323L49.8239 12.935ZM58.6159 13.323C61.5119 13.123 64.3489 12.59 67.0139 11.682L58.6159 13.323Z" fill="#FFF6E9"/>
<path d="M68.5479 17.584C71.9095 16.9228 75.1578 15.7758 78.1889 14.179L78.2689 14.137L78.2709 14.136C78.7302 13.8912 79.1319 13.551 79.4491 13.1383C79.7663 12.7257 79.9916 12.25 80.1101 11.7431C80.2285 11.2363 80.2373 10.71 80.1359 10.1995C80.0344 9.68902 79.8251 9.20607 79.5219 8.78302C78.9535 7.99155 78.0946 7.45752 77.1334 7.29784C76.1721 7.13816 75.1867 7.36583 74.3929 7.93102C72.1289 9.53379 69.643 10.7975 67.0139 11.682M68.5479 17.584L67.0139 11.682M68.5479 17.584C65.1889 18.255 61.7539 18.838 58.5059 18.637M68.5479 17.584L58.5059 18.637M67.0139 11.682C64.3489 12.59 61.5119 13.123 58.6159 13.323M67.0139 11.682L58.6159 13.323M58.5059 18.637L58.2889 18.624C55.0209 18.424 51.6509 18.218 48.6519 17.36C47.1102 16.9129 45.5913 16.3903 44.1009 15.794L44.0979 15.792M58.5059 18.637L44.0979 15.792M44.0979 15.792C42.6226 15.2195 41.1683 14.5941 39.7379 13.917H39.7359M44.0979 15.792L39.7359 13.917M39.7359 13.917C36.8806 12.5737 34.1502 10.9784 31.5769 9.15202M31.5769 9.15202L39.7369 13.916M31.5769 9.15202C31.0526 8.77878 30.5358 8.39504 30.0269 8.00102M31.5769 9.15202L30.0269 8.00102M30.0269 8.00102L30.0219 7.99702M30.0219 7.99702C29.6923 7.74734 29.3676 7.49129 29.0479 7.22902M30.0219 7.99702L29.0479 7.22902M29.0479 7.22902L29.0449 7.22702M29.0449 7.22702L29.0469 7.22902M29.0449 7.22702C28.4729 6.76702 27.9132 6.29469 27.3659 5.81002M29.0449 7.22702L27.3659 5.81002M27.3659 5.81002L27.3639 5.80802C26.6423 5.17632 25.9387 4.52439 25.2539 3.85302C25.3959 3.61102 25.5799 3.32102 25.7759 3.04302C25.9341 2.81526 26.1078 2.59874 26.2959 2.39502C28.3728 4.05175 30.5713 5.54997 32.8729 6.87702M32.8729 6.87702C35.5032 8.38249 38.2625 9.65051 41.1179 10.666C42.5379 11.176 43.9819 11.636 45.4329 12.036M32.8729 6.87702L33.1219 6.44302L32.8739 6.87802L32.8729 6.87702ZM27.3629 5.80702L45.4329 12.036M45.4329 12.036L45.4429 12.038M45.4429 12.038C46.8929 12.408 48.3522 12.7067 49.8209 12.934H49.8239M45.4429 12.038L49.8239 12.935M49.8239 12.935C52.7569 13.372 55.7169 13.525 58.6159 13.323M49.8239 12.935L58.6159 13.323" stroke="#E29A66"/>
<path d="M50.7731 79.6288C50.7731 84.5988 40.5431 88.6238 27.9261 88.6238C15.3061 88.6238 1.74609 84.5978 1.74609 79.6288H50.7731ZM2.29809 78.9988L27.4981 8.79883L49.6981 78.9988H2.29809Z" fill="#FFF6E9"/>
<path d="M1.36787 80.725C1.22364 80.6757 1.08953 80.5984 0.97517 80.4976C0.860808 80.3969 0.767432 80.2745 0.700378 80.1376C0.633325 80.0007 0.593909 79.852 0.584385 79.6998C0.574861 79.5477 0.595416 79.3952 0.644875 79.251L26.8249 3.486C26.9049 3.25274 27.0573 3.05107 27.2598 2.91027C27.4622 2.76947 27.7043 2.69686 27.9509 2.703C28.4579 2.713 28.8989 3.048 29.0439 3.53L51.8919 79.294C51.9357 79.4401 51.9502 79.5935 51.9346 79.7453C51.9191 79.8971 51.8737 80.0443 51.8012 80.1785C51.7286 80.3128 51.6303 80.4314 51.5119 80.5275C51.3934 80.6237 51.2571 80.6956 51.1109 80.739C50.8152 80.828 50.4952 80.7961 50.223 80.6503C49.9508 80.5044 49.7475 80.2565 49.6579 79.961L28.2979 9.131L27.8519 7.65L27.3469 9.111L2.84987 80.005C2.74862 80.2971 2.53553 80.537 2.25743 80.672C1.97934 80.807 1.66001 80.8261 1.36787 80.725Z" fill="#E29A66"/>
<path d="M0.644875 79.251C0.595416 79.3952 0.574861 79.5477 0.584385 79.6998C0.593909 79.852 0.633325 80.0007 0.700378 80.1376C0.767432 80.2745 0.860808 80.3969 0.97517 80.4976C1.08953 80.5984 1.22364 80.6757 1.36787 80.725C1.66001 80.8261 1.97934 80.807 2.25743 80.672C2.53553 80.537 2.74862 80.2971 2.84987 80.005L27.3469 9.111L27.8519 7.65L28.2979 9.131L49.6579 79.961C49.7475 80.2565 49.9508 80.5044 50.223 80.6503C50.4952 80.7961 50.8152 80.828 51.1109 80.739C51.2571 80.6956 51.3934 80.6237 51.5119 80.5275C51.6303 80.4314 51.7286 80.3128 51.8012 80.1785C51.8737 80.0443 51.9191 79.8971 51.9346 79.7453C51.9502 79.5935 51.9357 79.4401 51.8919 79.294L29.0439 3.53C28.8989 3.048 28.4579 2.713 27.9509 2.703C27.7043 2.69686 27.4622 2.76947 27.2598 2.91027C27.0573 3.05107 26.9049 3.25274 26.8249 3.486L0.644875 79.251ZM0.644875 79.251L0.171875 79.088" stroke="#FFF6E9"/>
<path d="M39.8154 73.7418C39.0295 74.2471 38.1146 74.5151 37.1804 74.5138C36.5391 74.515 35.9039 74.3893 35.3114 74.1438C34.719 73.8984 34.181 73.5382 33.7284 73.0838C33.2745 72.6309 32.9145 72.0928 32.6691 71.5004C32.4237 70.9081 32.2977 70.273 32.2984 69.6318C32.3 68.6396 32.6031 67.6713 33.1677 66.8553C33.7322 66.0393 34.5314 65.4142 35.4594 65.0628L36.6934 64.5978L36.0144 65.7278C35.5692 66.4655 35.3353 67.3113 35.3384 68.1728C35.3384 69.3998 35.8024 70.5188 36.5634 71.3588C37.3532 72.2335 38.4406 72.7825 39.6134 72.8988L40.9254 73.0288L39.8154 73.7418ZM37.1804 73.5958C37.505 73.5952 37.816 73.5585 38.1134 73.4858C37.2599 73.1673 36.4952 72.6488 35.8834 71.9738C35.2415 71.2665 34.7895 70.4079 34.5695 69.4784C34.3495 68.549 34.3687 67.5789 34.6254 66.6588L34.6464 66.5828C34.198 66.9543 33.8374 67.4202 33.5901 67.9473C33.3429 68.4744 33.2153 69.0496 33.2164 69.6318C33.2157 70.1526 33.3181 70.6683 33.5175 71.1494C33.7169 71.6304 34.0095 72.0673 34.3784 72.4348C34.746 72.8032 35.1827 73.0954 35.6636 73.2945C36.1445 73.4935 36.6599 73.5966 37.1804 73.5958ZM16.7394 74.6748C17.2659 74.5756 17.7677 74.3734 18.216 74.0798C18.6642 73.7862 19.05 73.4069 19.3514 72.9638C19.9384 72.1018 20.1974 71.0138 19.9874 69.9068C19.8879 69.3804 19.6855 68.8787 19.3917 68.4306C19.0979 67.9826 18.7185 67.5969 18.2754 67.2958C17.5128 66.7753 16.596 66.5296 15.6754 66.5988L15.0934 63.5288L16.5684 64.3388C16.6212 64.3727 16.6804 64.3954 16.7424 64.4054C16.8043 64.4154 16.8677 64.4126 16.9285 64.3971C16.9893 64.3817 17.0463 64.3538 17.096 64.3154C17.1456 64.277 17.1868 64.2288 17.217 64.1738C17.2472 64.1188 17.2658 64.0581 17.2716 63.9957C17.2774 63.9332 17.2703 63.8701 17.2508 63.8105C17.2312 63.7509 17.1996 63.6959 17.1579 63.649C17.1162 63.6021 17.0653 63.5643 17.0084 63.5378L14.7284 62.2858C14.6778 62.2494 14.6203 62.2236 14.5595 62.21C14.4986 62.1964 14.4356 62.1953 14.3744 62.2068C14.2538 62.2212 14.1438 62.2827 14.0684 62.3778L12.4164 64.4648C12.3527 64.5608 12.3274 64.6772 12.3455 64.791C12.3637 64.9047 12.4239 65.0075 12.5143 65.0789C12.6047 65.1503 12.7187 65.1851 12.8335 65.1764C12.9484 65.1676 13.0558 65.1161 13.1344 65.0318L14.1904 63.6998L14.7724 66.7698C13.8901 67.0421 13.1266 67.6064 12.6074 68.3698C12.3052 68.8124 12.0933 69.3102 11.984 69.8348C11.8747 70.3594 11.8701 70.9004 11.9704 71.4268C12.0697 71.9532 12.272 72.4548 12.5656 72.9029C12.8592 73.351 13.2384 73.7366 13.6814 74.0378C14.124 74.3402 14.622 74.5521 15.1468 74.6614C15.6716 74.7707 16.2128 74.7753 16.7394 74.6748ZM18.5914 72.4458C18.3582 72.7892 18.0594 73.0832 17.7122 73.3108C17.365 73.5383 16.9763 73.695 16.5684 73.7718C16.1606 73.8496 15.7414 73.846 15.3351 73.7612C14.9287 73.6764 14.543 73.5122 14.2004 73.2778C13.8571 73.0448 13.5632 72.7461 13.3356 72.3991C13.1081 72.0521 12.9513 71.6636 12.8744 71.2558C12.7965 70.8481 12.7999 70.429 12.8845 70.0226C12.9691 69.6162 13.1332 69.2306 13.3674 68.8878C13.6007 68.5446 13.8995 68.2509 14.2466 68.0235C14.5938 67.7961 14.9825 67.6395 15.3904 67.5628C16.2484 67.3998 17.0904 67.5998 17.7584 68.0558C18.1016 68.2891 18.3953 68.5879 18.6227 68.9351C18.8501 69.2823 19.0067 69.671 19.0834 70.0788C19.1613 70.4863 19.1579 70.9052 19.0735 71.3114C18.989 71.7176 18.8252 72.1031 18.5914 72.4458ZM23.7574 53.2198C23.1514 53.5198 22.6774 53.9798 22.3594 54.5228L22.2494 54.5078C21.8524 54.4428 21.5774 54.2688 21.4174 54.0218C21.1964 53.6838 21.1844 53.2318 21.2484 52.8438C21.2596 52.7278 21.2264 52.6119 21.1553 52.5195C21.0842 52.4272 20.9807 52.3653 20.8657 52.3465C20.7507 52.3277 20.6328 52.3533 20.536 52.4182C20.4392 52.483 20.3707 52.5823 20.3444 52.6958C20.2424 53.3188 20.2974 53.9818 20.6494 54.5208C20.9344 54.9588 21.3844 55.2708 22.0074 55.3958C21.8165 56.1568 21.903 56.9609 22.2514 57.6638C22.4434 58.0552 22.711 58.4046 23.0389 58.6919C23.3667 58.9793 23.7482 59.1988 24.1614 59.3378C24.8724 59.5807 25.6449 59.5736 26.3514 59.3178L27.0304 60.6958L25.6524 61.3758C25.6084 61.3975 25.5691 61.4276 25.5367 61.4645C25.5044 61.5013 25.4796 61.5442 25.4638 61.5906C25.448 61.6371 25.4415 61.6861 25.4447 61.7351C25.4479 61.784 25.4607 61.8318 25.4824 61.8758C25.504 61.9198 25.5341 61.9591 25.571 61.9915C25.6079 62.0238 25.6507 62.0486 25.6972 62.0644C25.7436 62.0802 25.7927 62.0867 25.8416 62.0835C25.8905 62.0803 25.9384 62.0675 25.9824 62.0458L27.3624 61.3658L27.8254 62.3058C27.8742 62.3856 27.951 62.4443 28.0409 62.4703C28.1307 62.4963 28.227 62.4878 28.3109 62.4465C28.3948 62.4052 28.4602 62.334 28.4944 62.2469C28.5285 62.1598 28.5288 62.0632 28.4954 61.9758L28.0324 61.0348L29.4104 60.3548C29.4968 60.3096 29.5621 60.2323 29.5923 60.1396C29.6226 60.0469 29.6155 59.946 29.5724 59.8585C29.5294 59.771 29.4538 59.7037 29.3619 59.6711C29.27 59.6385 29.169 59.643 29.0804 59.6838L27.7004 60.3638L27.0204 58.9858C27.6534 58.5809 28.1293 57.972 28.3694 57.2598C28.5103 56.8474 28.568 56.4111 28.5394 55.9761C28.5107 55.5412 28.3962 55.1163 28.2024 54.7258C27.9301 54.1708 27.5074 53.7033 26.9824 53.3768C27.3394 52.8098 27.4194 52.2438 27.2784 51.7188C27.1124 51.0958 26.6554 50.6118 26.1254 50.2718C26.0231 50.2062 25.899 50.1839 25.7803 50.2097C25.6616 50.2356 25.558 50.3076 25.4924 50.4098C25.4267 50.5121 25.4044 50.6362 25.4303 50.7549C25.4561 50.8736 25.5281 50.9772 25.6304 51.0428C25.9614 51.2548 26.2904 51.5658 26.3944 51.9568C26.4704 52.2408 26.4164 52.5618 26.1994 52.9008C26.1794 52.9322 26.1574 52.9645 26.1334 52.9978L26.1304 53.0018C25.3396 52.7783 24.4941 52.856 23.7574 53.2198ZM22.7914 55.3698C22.8992 55.0501 23.0693 54.7548 23.2917 54.5009C23.5141 54.2471 23.7845 54.0398 24.0874 53.8908C24.39 53.7408 24.7194 53.6522 25.0565 53.63C25.3935 53.6079 25.7317 53.6527 26.0514 53.7618C26.3714 53.8697 26.667 54.0398 26.921 54.2624C27.175 54.485 27.3824 54.7557 27.5314 55.0588C27.8444 55.6948 27.8714 56.3988 27.6594 57.0218C27.5516 57.3418 27.3816 57.6373 27.1592 57.8913C26.9368 58.1453 26.6663 58.3528 26.3634 58.5018C26.0608 58.6519 25.7316 58.7408 25.3946 58.7633C25.0576 58.7858 24.7194 58.7416 24.3996 58.6332C24.0797 58.5248 23.7844 58.3543 23.5305 58.1315C23.2767 57.9087 23.0693 57.638 22.9204 57.3348C22.7707 57.0321 22.6822 56.7028 22.6599 56.3658C22.6376 56.0288 22.6819 55.6907 22.7904 55.3708" fill="#572083"/>
<path d="M74.3541 12.9549C76.6443 15.4979 79.2932 17.6934 82.2171 19.4719C85.1361 21.2589 88.1581 22.9899 91.2751 23.9209L91.4841 23.9829C94.6201 24.9229 97.852 25.8899 100.964 26.1189C102.57 26.2319 104.178 26.2619 105.778 26.2169H105.782C107.365 26.1873 108.947 26.1016 110.524 25.9599H110.525C113.671 25.6836 116.786 25.1288 119.834 24.3019C120.455 24.1319 121.073 23.9496 121.688 23.7549L121.694 23.7529C122.089 23.6329 122.483 23.5049 122.876 23.3689H122.879C123.574 23.1348 124.263 22.884 124.946 22.6169L124.949 22.6159C125.846 22.272 126.732 21.9029 127.608 21.5089C127.558 21.2329 127.487 20.8959 127.399 20.5689C127.33 20.3012 127.242 20.0386 127.137 19.7829C125.229 20.4179 123.287 20.9437 121.319 21.3579H121.318L121.216 20.8679C120.588 21.0013 119.958 21.1213 119.326 21.2279L74.3541 12.9549ZM74.3541 12.9549L74.2921 12.8849C73.9468 12.4957 73.6885 12.0373 73.5346 11.5403C73.3807 11.0433 73.3347 10.5192 73.3997 10.003C73.4646 9.48681 73.639 8.99041 73.9112 8.54702C74.1834 8.10363 74.5471 7.72346 74.9781 7.43193M74.3541 12.9549L74.9781 7.43193L74.3541 12.9549ZM74.9781 7.43193C75.7845 6.88484 76.7747 6.68044 77.7322 6.86166C78.6897 7.04289 79.5364 7.59598 80.087 8.39993L74.9781 7.43193ZM80.0881 8.39993C81.6559 10.6843 83.5497 12.7269 85.7091 14.4629L80.0881 8.39993Z" fill="#FFF6E9"/>
<path d="M74.3541 12.9549C76.6443 15.4979 79.2932 17.6934 82.2171 19.4719C85.1361 21.2589 88.1581 22.9899 91.2751 23.9209L91.4841 23.9829C94.6201 24.9229 97.852 25.8899 100.964 26.1189C102.57 26.2319 104.178 26.2619 105.778 26.2169H105.782C107.365 26.1873 108.947 26.1016 110.524 25.9599H110.525C113.671 25.6836 116.786 25.1288 119.834 24.3019C120.455 24.1319 121.073 23.9496 121.688 23.7549L121.694 23.7529C122.089 23.6329 122.483 23.5049 122.876 23.3689H122.879C123.574 23.1348 124.263 22.884 124.946 22.6169L124.949 22.6159C125.846 22.272 126.732 21.9029 127.608 21.5089C127.558 21.2329 127.487 20.8959 127.399 20.5689C127.33 20.3012 127.242 20.0386 127.137 19.7829C125.229 20.4179 123.287 20.9437 121.319 21.3579H121.318L121.216 20.8679C120.588 21.0013 119.958 21.1213 119.326 21.2279L74.3541 12.9549ZM74.3541 12.9549L74.2921 12.8849C73.9468 12.4957 73.6885 12.0373 73.5346 11.5403C73.3807 11.0433 73.3347 10.5192 73.3997 10.003C73.4646 9.48681 73.639 8.99041 73.9112 8.54702C74.1834 8.10363 74.5471 7.72346 74.9781 7.43193M74.3541 12.9549L74.9781 7.43193M74.9781 7.43193C75.7845 6.88484 76.7747 6.68044 77.7322 6.86166C78.6897 7.04289 79.5364 7.59598 80.087 8.39993L74.9781 7.43193ZM80.0881 8.39993C81.6559 10.6843 83.5497 12.7269 85.7091 14.4629L80.0881 8.39993Z" stroke="#E29A66"/>
<path d="M31.4084 5.41093C31.4084 5.62693 31.3891 5.83627 31.3504 6.03893C31.1928 6.89945 30.7142 7.66795 30.0114 8.18893C29.4085 8.63922 28.6759 8.88202 27.9234 8.88093C27.4668 8.88225 27.0144 8.79348 26.5921 8.61971C26.1699 8.44594 25.786 8.19058 25.4626 7.86826C25.1391 7.54593 24.8824 7.16297 24.7072 6.74131C24.532 6.31964 24.4417 5.86756 24.4414 5.41093C24.4414 4.85793 24.5724 4.33493 24.8024 3.87293C25.0888 3.29974 25.5271 2.81617 26.0694 2.47493C26.624 2.12423 27.2672 1.93899 27.9234 1.94093C28.3801 1.93988 28.8325 2.02881 29.2548 2.20264C29.6772 2.37646 30.0611 2.63178 30.3847 2.95402C30.7083 3.27625 30.9653 3.65908 31.141 4.08064C31.3166 4.50221 31.4075 4.95424 31.4084 5.41093Z" fill="#FFF6E9" stroke="#E29A66" stroke-width="1.5"/>
<path d="M147.093 95.6099C147.093 100.579 136.864 104.605 124.247 104.605C111.627 104.605 101.398 100.579 101.398 95.6089L147.093 95.6099Z" fill="#FFF6E9"/>
<path d="M145.975 95.9418L124.722 25.4678L124.244 23.8798L123.765 25.4678L102.513 95.9418C102.422 96.237 102.219 96.4844 101.946 96.6299C101.674 96.7755 101.355 96.8074 101.059 96.7188C100.913 96.6753 100.777 96.6034 100.659 96.5072C100.54 96.4111 100.442 96.2926 100.37 96.1585C100.297 96.0244 100.252 95.8773 100.237 95.7257C100.221 95.5741 100.235 95.4209 100.279 95.2748L123.127 19.5098C123.274 19.0198 123.728 18.6838 124.243 18.6838C124.758 18.6838 125.213 19.0198 125.36 19.5098L148.208 95.2748C148.252 95.4209 148.266 95.5742 148.251 95.7259C148.235 95.8775 148.19 96.0246 148.117 96.1588C148.044 96.2929 147.946 96.4114 147.828 96.5075C147.709 96.6036 147.573 96.6754 147.427 96.7188C147.316 96.7522 147.203 96.7688 147.091 96.7688C146.588 96.7688 146.126 96.4428 145.975 95.9418Z" fill="#E29A66" stroke="#FFF6E9"/>
<path d="M124.245 24.859C124.701 24.8598 125.153 24.7706 125.575 24.5967C125.997 24.4227 126.381 24.1673 126.704 23.8451C127.028 23.5229 127.284 23.1402 127.46 22.7187C127.635 22.2973 127.726 21.8455 127.727 21.389C127.726 20.9324 127.635 20.4805 127.46 20.0589C127.285 19.6374 127.028 19.2545 126.705 18.9322C126.381 18.6099 125.998 18.3544 125.576 18.1804C125.154 18.0064 124.701 17.9172 124.245 17.918C123.788 17.9171 123.336 18.0061 122.914 18.18C122.492 18.3539 122.108 18.6092 121.784 18.9315C121.461 19.2537 121.204 19.6365 121.029 20.058C120.853 20.4795 120.763 20.9314 120.762 21.388C120.763 21.8445 120.853 22.2965 121.029 22.718C121.204 23.1395 121.461 23.5222 121.784 23.8445C122.108 24.1667 122.492 24.4221 122.914 24.596C123.336 24.7699 123.788 24.8599 124.245 24.859Z" fill="#FFF6E9" stroke="#E29A66" stroke-width="1.5"/>
<path d="M35.2997 123.667V123.665L35.3017 123.659L35.3077 123.634L35.3297 123.54L35.4097 123.206L35.6497 122.19L35.6777 122.071L36.0057 120.685L36.0447 120.494L35.9507 120.339C36.6682 118.921 37.765 117.73 39.1191 116.898C40.4732 116.066 42.0315 115.626 43.6207 115.627H108.92C110.487 115.625 112.024 116.053 113.366 116.862C114.708 117.672 115.803 118.833 116.532 120.22L116.475 120.264L116.536 120.568L116.542 120.595L116.545 120.605L116.547 120.613L116.549 120.621L116.552 120.631L116.562 120.66L116.594 120.761L116.709 121.114L117.055 122.179L117.4 123.241L117.514 123.591L117.545 123.689L117.554 123.714L117.556 123.721L117.557 123.723L117.594 123.838L117.68 123.924L117.697 123.94L118.78 128.42H33.7617L34.8117 124.077L34.9637 124.028L35.2337 123.943L35.2997 123.667Z" fill="#FFF6E9"/>
<path d="M34.8127 123.552L35.2997 123.667M35.2997 123.667V123.665L35.3017 123.659L35.3077 123.634L35.3297 123.54L35.4097 123.206L35.6497 122.19L35.6777 122.071L36.0057 120.685L36.0447 120.494L35.9507 120.339C36.6682 118.921 37.765 117.73 39.1191 116.898C40.4732 116.066 42.0315 115.626 43.6207 115.627H108.92C110.487 115.625 112.024 116.053 113.366 116.862C114.708 117.672 115.803 118.833 116.532 120.22L116.475 120.264L116.536 120.568L116.542 120.595L116.545 120.605L116.547 120.613L116.549 120.621L116.552 120.631L116.562 120.66L116.594 120.761L116.709 121.114L117.055 122.179L117.4 123.241L117.514 123.591L117.545 123.689L117.554 123.714L117.556 123.721L117.557 123.723L117.594 123.838L117.68 123.924L117.697 123.94L118.78 128.42H33.7617L34.8117 124.077L34.9637 124.028L35.2337 123.943L35.2997 123.667Z" stroke="#E29A66"/>
<path d="M117.117 122.027L117.106 122C116.962 121.642 116.768 121.305 116.532 121H36.47C36.228 121.317 36.033 121.65 35.894 122C35.89 122.009 35.8867 122.018 35.884 122.027L35.5 123H117.5L117.117 122.027ZM76.27 18.0499C79.576 18.0499 82.256 15.3789 82.256 12.0839C82.256 8.7899 79.576 6.1189 76.27 6.1189C72.964 6.1189 70.284 8.7889 70.284 12.0839C70.284 15.3789 72.964 18.0499 76.27 18.0499Z" fill="#E29A66"/>
<path d="M131.53 88.711C131.474 88.8366 131.469 88.979 131.515 89.1086C131.561 89.2382 131.656 89.345 131.779 89.4067C131.901 89.4685 132.043 89.4806 132.175 89.4404C132.307 89.4002 132.418 89.3109 132.485 89.191L133.804 86.564L135.061 87.195C135.124 87.2264 135.192 87.2452 135.262 87.2503C135.332 87.2553 135.402 87.2465 135.469 87.2244C135.535 87.2023 135.597 87.1673 135.65 87.1215C135.703 87.0756 135.747 87.0197 135.778 86.957C135.81 86.8942 135.828 86.826 135.833 86.756C135.838 86.686 135.83 86.6157 135.808 86.5492C135.785 86.4826 135.75 86.421 135.705 86.368C135.659 86.3149 135.603 86.2714 135.54 86.24L134.284 85.609L136.188 81.816L136.96 83.033C136.998 83.092 137.046 83.143 137.104 83.1832C137.161 83.2234 137.226 83.2518 137.294 83.267C137.362 83.2822 137.433 83.2838 137.502 83.2717C137.571 83.2596 137.637 83.234 137.696 83.1965C137.755 83.1589 137.806 83.1101 137.846 83.0528C137.886 82.9955 137.914 82.9309 137.93 82.8626C137.945 82.7943 137.946 82.7236 137.934 82.6547C137.922 82.5858 137.897 82.52 137.859 82.461L136.606 80.486V80.484H136.605L136.601 80.477L136.598 80.473L136.596 80.469L136.592 80.462L136.591 80.461L136.586 80.453V80.451L136.582 80.445L136.577 80.437L136.572 80.429L136.567 80.421L136.565 80.418L136.562 80.414C136.532 80.3752 136.498 80.3403 136.459 80.31L136.454 80.307L136.452 80.305L136.444 80.3L136.436 80.294L136.421 80.284L136.414 80.279L136.39 80.265L136.386 80.263L136.382 80.261L136.374 80.257L136.366 80.253L136.362 80.251L136.357 80.249L136.349 80.245L136.34 80.241H136.336L136.33 80.238L136.323 80.235L136.313 80.232L136.31 80.231L136.304 80.229L136.297 80.227L136.295 80.226L136.287 80.223H136.285L136.278 80.22L136.272 80.219L136.269 80.218L136.259 80.216L136.25 80.214L136.247 80.213L136.241 80.211L136.234 80.21H136.231L136.195 80.204L136.175 80.201H136.165L136.156 80.2H136.118L136.073 80.202L133.467 80.287C133.328 80.2954 133.199 80.3576 133.105 80.4603C133.012 80.5631 132.962 80.6982 132.967 80.837C132.972 80.9758 133.03 81.1072 133.13 81.2034C133.23 81.2996 133.364 81.3529 133.503 81.352L135.254 81.294L133.33 85.128L132.073 84.496C131.947 84.44 131.805 84.4345 131.675 84.4808C131.546 84.527 131.439 84.6214 131.377 84.7444C131.316 84.8673 131.303 85.0093 131.344 85.1409C131.384 85.2725 131.473 85.3835 131.593 85.451L132.85 86.083L131.53 88.711Z" fill="#572083"/>
<path d="M140.884 103.187C136.43 104.941 130.521 105.913 124.245 105.913C118.333 105.913 112.25 104.984 107.657 103.205C105.361 102.315 103.457 101.22 102.133 99.9408C100.813 98.6648 100.08 97.2199 100.08 95.6068C100.08 94.8848 100.668 94.2968 101.396 94.2968H147.092C147.819 94.2968 148.408 94.8848 148.408 95.6068C148.408 98.5079 145.85 101.232 140.884 103.187ZM103.721 96.9168H103.003L103.445 97.4828C104.66 99.0398 107.332 100.484 110.917 101.541C114.522 102.604 119.114 103.293 124.245 103.293C130.174 103.293 135.74 102.395 139.916 100.75C142.293 99.8138 144.084 98.6758 145.026 97.4848L145.474 96.9178L103.721 96.9168ZM4.40869 80.9398H3.49169L4.17569 81.5499C5.73669 82.9449 8.90269 84.3808 13.0307 85.4688C17.1747 86.5608 22.3357 87.3139 27.9267 87.3139C33.8557 87.3139 39.4217 86.4159 43.5977 84.7719C45.9747 83.8359 47.7657 82.6968 48.7077 81.5058L49.1557 80.9389L4.40869 80.9398ZM44.5657 87.2088C40.1117 88.9618 34.2027 89.9348 27.9267 89.9348C22.1197 89.9348 15.1957 89.0128 9.73369 87.2309C7.00169 86.3408 4.65769 85.2408 3.00369 83.9508C1.34969 82.6608 0.429688 81.2168 0.429688 79.6288C0.429688 78.9068 1.01769 78.3188 1.74569 78.3188H50.7737C51.5017 78.3188 52.0897 78.9068 52.0897 79.6288C52.0897 82.5298 49.5317 85.2538 44.5657 87.2088Z" fill="#E29A66"/>
<path d="M139.916 100.75C135.74 102.395 130.174 103.293 124.245 103.293C119.114 103.293 114.522 102.604 110.917 101.541C107.332 100.484 104.66 99.0398 103.445 97.4828L103.003 96.9168H103.721L145.474 96.9178L145.026 97.4848C144.084 98.6758 142.293 99.8138 139.916 100.75ZM139.916 100.75L139.788 100.425M44.5657 87.2088L44.6937 87.5338M44.5657 87.2088C40.1117 88.9618 34.2027 89.9348 27.9267 89.9348C22.1197 89.9348 15.1957 89.0129 9.73369 87.2309C7.00169 86.3409 4.65769 85.2408 3.00369 83.9508C1.34969 82.6608 0.429688 81.2168 0.429688 79.6288C0.429688 78.9068 1.01769 78.3188 1.74569 78.3188H50.7737C51.5017 78.3188 52.0897 78.9068 52.0897 79.6288C52.0897 82.5298 49.5317 85.2538 44.5657 87.2088ZM140.884 103.187C136.43 104.941 130.521 105.913 124.245 105.913C118.333 105.913 112.25 104.984 107.657 103.205C105.361 102.315 103.457 101.22 102.133 99.9408C100.813 98.6648 100.08 97.2198 100.08 95.6068C100.08 94.8848 100.668 94.2968 101.396 94.2968H147.092C147.819 94.2968 148.408 94.8848 148.408 95.6068C148.408 98.5078 145.85 101.232 140.884 103.187ZM4.40869 80.9398H3.49169L4.17569 81.5499C5.73669 82.9449 8.90269 84.3808 13.0307 85.4688C17.1747 86.5608 22.3357 87.3139 27.9267 87.3139C33.8557 87.3139 39.4217 86.4159 43.5977 84.7719C45.9747 83.8359 47.7657 82.6968 48.7077 81.5058L49.1557 80.9389L4.40869 80.9398Z" stroke="#FFF6E9" stroke-width="0.7"/>
</g>
</svg>
