<svg width="142" height="122" viewBox="0 0 142 122" fill="none" xmlns="http://www.w3.org/2000/svg">
<g clip-path="url(#clip0_814_916)">
<g clip-path="url(#clip1_814_916)">
<mask id="mask0_814_916" style="mask-type:alpha" maskUnits="userSpaceOnUse" x="0" y="0" width="141" height="122">
<path d="M140.75 52C140.75 90.6599 109.41 122 70.75 122C32.0901 122 0.75 90.6599 0.75 52C0.75 13.3401 32.0901 0 70.75 0C109.41 0 140.75 13.3401 140.75 52Z" fill="#BDBDBD"/>
</mask>
<g mask="url(#mask0_814_916)">
<path d="M75.509 49.8647C75.509 49.8647 82.0698 64.2564 77.2867 68.7432C77.2867 68.7432 88.7579 80.9762 82.5355 89.8652C77.3714 97.2303 32.9688 86.6482 32.9688 86.6482C32.9688 86.6482 40.9689 73.1031 41.6038 64.6373C42.5351 52.4044 41.3499 39.3249 46.0907 29.547C54.0484 12.9119 75.509 49.8647 75.509 49.8647Z" fill="#261A1A"/>
<path d="M58.7492 64.1713C61.5853 69.1237 61.3313 83.4307 63.9133 88.5525C64.6329 89.9493 65.5218 91.2192 66.4531 92.4467C67.5113 93.7589 95.3634 95.3251 95.9137 92.1928C97.6069 82.7958 89.7338 80.3831 93.882 58.6685C94.5592 55.1129 100.95 40.0863 97.8185 31.5359C94.6862 22.9856 92.5697 20.0226 86.8554 20.2765C85.6279 20.3189 84.4427 9.31345 73.3526 8.80551C66.3684 8.46688 60.5694 13.8003 60.5694 13.8003C59.7228 15.4934 52.146 12.1918 48.7597 18.7104C44.9501 25.9486 43.9766 35.5148 43.9766 35.5148C46.22 40.4249 48.5481 42.5414 50.7915 47.4515" fill="#261A1A"/>
<path d="M100.031 84.1124C100.279 78.9057 99.0286 73.8092 97.4668 68.8526C96.6839 66.3954 95.6862 63.96 95.4673 61.3873C95.2524 58.7724 96.0746 56.4279 96.947 54.0033C98.4038 49.9341 98.7352 45.6285 97.7823 41.4113C96.7437 36.7605 94.236 32.3504 90.5786 29.2749C90.1477 28.8931 89.952 28.2788 90.2999 27.7596C90.5975 27.3206 91.3423 27.0949 91.8153 27.4809C98.8556 33.3926 102.034 43.1833 99.8513 52.1154C99.2819 54.4843 98.0466 56.7037 97.6879 59.093C97.3048 61.7351 98.244 64.335 99.027 66.7922C100.737 71.9757 102.224 77.2652 102.2 82.7912" fill="#261A1A"/>
<path d="M54.7692 13.8003C51.2559 14.3929 50.7057 13.0384 51.4676 8.72089C52.2295 4.40338 57.6052 1.14408 61.0338 1.01709C68.0604 0.763123 71.7006 3.34516 70.0921 8.38226C64.0815 10.287 60.5682 12.4458 59.5947 13.631C58.1132 13.9273 58.3248 13.2077 54.7692 13.8003Z" fill="#261A1A"/>
<path d="M49.1499 74.481C52.4726 72.2131 56.402 71 60.4248 71H78.3096C82.1862 71 85.9792 72.1266 89.2272 74.2427L109.579 87.5023C114.45 90.6757 117.699 95.8115 118.48 101.572L121.25 122H19.75L21.8091 101.753C22.4057 95.8858 25.5609 90.5814 30.4316 87.257L49.1499 74.481Z" fill="#484B4C"/>
<path d="M57.362 69.8355L59.2502 59.4502H79.2502L81.1384 69.8355C81.2112 70.2358 81.4043 70.6043 81.692 70.892L82.811 72.011C83.6017 72.8017 83.5904 74.0872 82.7859 74.864L72.4376 84.8555C70.9246 86.3163 68.5388 86.356 66.978 84.9463L55.8118 74.8607C54.9625 74.0935 54.9289 72.7715 55.7382 71.9622L56.8084 70.892C57.0961 70.6043 57.2892 70.2358 57.362 69.8355Z" fill="#E99167"/>
<path d="M57.8906 66.9502L59.2506 59.4502L80.013 60.4102C80.013 60.4102 80.4306 73.1802 57.8906 66.9502Z" fill="#1A1A1A"/>
<path d="M91.8941 17.5205C90.5641 17.3805 89.2341 17.5905 88.0441 18.1155C88.1141 17.9755 88.2191 17.8355 88.3241 17.6955C89.0241 16.6455 87.3441 15.6655 86.6441 16.7155C86.0491 17.5905 85.6291 18.5705 85.3491 19.5855C85.2091 20.1105 85.4891 20.4955 85.8741 20.6705C86.1541 21.0555 86.7841 21.2655 87.2741 20.8455C88.6041 19.7255 90.1441 19.1655 91.8941 19.3405C93.0491 19.4105 93.0141 17.6605 91.8941 17.5205Z" fill="#261A1A"/>
<path d="M54.287 36.6095C54.287 36.6445 54.287 36.6446 54.287 36.6796C50.227 36.0496 49.632 39.6546 49.772 41.5796C49.947 44.2746 49.317 49.7695 54.007 49.9095C54.357 52.5345 54.042 53.7945 54.707 56.3495C55.302 58.6245 58.837 62.0195 60.097 63.3845C62.512 66.0095 68.672 66.8495 71.717 66.3245C76.932 65.4145 80.607 62.4395 82.742 59.0445C84.422 56.3845 84.177 54.4945 84.982 51.3095C84.982 51.3095 89.777 50.8545 90.372 43.4345C90.547 41.1595 88.832 36.9246 86.732 37.9396C87.187 36.1196 88.237 32.6195 87.257 32.1995C84.737 31.0795 82.707 27.0895 81.692 26.4945C80.117 25.6195 75.987 25.7945 75.427 25.7945C73.117 25.7595 71.682 20.7545 70.142 22.4345C68.497 24.2545 64.297 27.5795 62.267 28.5245C60.412 29.3995 58.207 30.9745 55.862 31.3945C55.617 31.4295 55.337 31.2545 55.127 31.3945C54.917 31.5345 54.812 31.7795 54.777 32.0245C54.427 33.1445 54.357 35.5245 54.287 36.6095Z" fill="#E99167"/>
<path d="M68.1808 50.224C67.7958 49.594 68.3908 48.964 68.9858 49.139C69.3008 49.174 69.6158 49.209 69.9308 49.244C70.4908 49.244 70.9108 49.909 70.4908 50.434C70.3508 50.609 70.1058 50.714 69.8608 50.679C69.4758 50.644 69.1258 50.609 68.7408 50.539C68.4958 50.539 68.2858 50.434 68.1808 50.224Z" fill="#D5745C"/>
<path d="M64.6477 55.825C64.6477 55.825 74.2377 55.02 74.0977 55.65C73.8527 56.665 71.9977 59.885 69.4427 59.885C66.6427 59.885 62.3727 56.315 64.6477 55.825Z" fill="white"/>
<path d="M76.6166 33.2901C77.5616 33.6751 78.5416 33.8851 79.4866 34.3051C80.4316 34.7251 81.3066 35.2851 82.2516 35.7401C83.0916 36.1601 82.4966 37.4901 81.6566 37.0701C80.7466 36.6151 79.8366 36.0551 78.9266 35.6351C77.9816 35.2151 77.0016 35.0051 76.0566 34.6201C75.1816 34.3051 75.7416 32.9751 76.6166 33.2901Z" fill="#261A1A"/>
<path d="M57.8224 36.1243C58.7324 35.7043 59.6074 35.1443 60.5524 34.7593C61.4974 34.3743 62.5124 34.1293 63.4924 33.7793C64.3674 33.4643 64.9274 34.7943 64.0524 35.1093C63.0724 35.4593 62.0574 35.7043 61.1124 36.0893C60.1674 36.4743 59.3274 37.0343 58.3824 37.4543C57.5074 37.8743 56.9824 36.5443 57.8224 36.1243Z" fill="#261A1A"/>
<path d="M77.0379 40.4253C77.2829 40.1453 77.5629 40.0054 77.9129 40.0404C77.9479 40.0404 77.9829 40.0404 78.0179 40.0404H78.0529H78.0879C79.2429 40.1104 79.6279 41.6503 79.1379 42.5253C79.0679 42.7353 78.9629 42.9453 78.7879 43.0503C78.6129 43.1903 78.4028 43.2253 78.1578 43.2253C78.1228 43.2253 78.1229 43.2603 78.0879 43.2603C77.5629 43.4003 77.1778 43.1204 76.9328 42.6654C76.4428 42.0704 76.4779 41.0553 77.0379 40.4253Z" fill="#1A1A1A"/>
<path d="M61.1111 40.04C61.5661 39.375 62.4411 39.2349 63.0711 39.7249C63.1411 39.7599 63.1761 39.83 63.2111 39.865C63.3511 40.04 63.4561 40.2499 63.4561 40.4949C63.4561 40.5299 63.4561 40.565 63.4561 40.565C63.4561 40.565 63.4561 40.5649 63.4561 40.5999C63.4211 41.0199 63.3511 41.4749 63.1061 41.8249C62.6511 42.5249 61.6711 42.4899 61.1461 41.8949C60.7261 41.3699 60.7611 40.6 61.1111 40.04Z" fill="#1A1A1A"/>
<path d="M72.7517 26.5C66.3567 21.384 68.7517 19.5 68.7517 19.5L70.7517 18L91.7517 28L97.2517 41L93.2517 60L80.2517 65C80.2517 65 81.1294 61.8337 81.7517 59.5C83.4383 53.1746 86.7517 48.5 86.7517 43C86.7517 38.1028 83.4337 33.5 81.7517 32C80.7517 31.1082 75.2517 28.5 72.7517 26.5Z" fill="#261A1A"/>
<path d="M38.9204 110.954C38.7513 113.153 38.6255 115.553 38.25 119H39.25C39.6255 115.553 39.7122 113.32 39.8401 111.111C40.0639 107.57 39.149 107.208 38.9204 110.954Z" fill="#2E3233"/>
<path d="M101.478 110.954C101.647 113.153 101.773 115.553 102.148 119H101.148C100.773 115.553 100.686 113.32 100.558 111.111C100.335 107.57 101.25 107.208 101.478 110.954Z" fill="#2E3233"/>
<path d="M56.2499 71.5C55.4396 72.3103 55.4651 73.6437 56.3168 74.4102L66.98 84.0071C68.5405 85.4115 70.9212 85.3706 72.4324 83.9133L82.2838 74.4137C83.0892 73.6371 83.1008 72.3509 82.3097 71.5598L82.2499 71.5L83.8074 71.8894C84.8725 72.1557 85.2306 73.4884 84.4425 74.2526L72.4907 85.8423C70.9568 87.3297 68.5247 87.349 66.9674 85.886L54.7718 74.4294C53.777 73.4949 54.0818 72.0711 55.4011 71.721C55.8911 71.5909 56.2499 71.5 56.2499 71.5Z" fill="#2E3233"/>
</g>
</g>
</g>
<defs>
<clipPath id="clip0_814_916">
<rect width="141" height="122" fill="white" transform="translate(0.5)"/>
</clipPath>
<clipPath id="clip1_814_916">
<rect width="141" height="122" fill="white" transform="translate(0.5)"/>
</clipPath>
</defs>
</svg>
