<svg width="58" height="34" viewBox="0 0 58 34" fill="none" xmlns="http://www.w3.org/2000/svg">
<g clip-path="url(#clip0_814_496)">
<rect width="34" height="34" transform="translate(12)" fill="white"/>
<path d="M42.5126 16.9054C42.0945 15.7272 41.532 14.5415 40.8403 13.3785C40.6807 11.1057 39.8218 9.02299 38.2331 7.44955C36.5989 5.84569 34.4401 5.02477 32.1066 4.92595C31.05 4.34826 29.9782 3.86939 28.9141 3.50453C33.4596 1.88548 37.9443 2.30354 40.7643 5.07798C43.5843 7.86001 44.0708 12.3371 42.5126 16.9054Z" fill="url(#paint0_linear_814_496)"/>
<path d="M41.0956 20.1057C40.1226 21.8691 38.8456 23.587 37.2874 25.1681C35.8432 26.6427 34.2621 27.8665 32.6431 28.8394C31.4801 29.5311 30.2943 30.0936 29.1161 30.5117C24.563 32.1383 20.0783 31.7127 17.2583 28.9382C14.4458 26.1638 13.9518 21.6867 15.51 17.1108C15.9129 15.925 16.4526 14.7316 17.1291 13.5534C18.0792 11.9192 19.2802 10.3305 20.732 8.85591C22.2903 7.27486 23.9853 5.97506 25.7336 4.9793C26.7674 4.91849 27.8391 5.00971 28.9185 5.23774C26.2885 5.83824 23.6357 7.29007 21.4237 9.54002C19.3562 11.6303 17.9956 14.1007 17.3571 16.5635C17.0378 17.8253 16.9086 19.0795 16.977 20.2881C17.1063 22.6141 17.9652 24.7652 19.5918 26.369C21.1881 27.9425 23.286 28.7634 25.5588 28.8926C26.7066 28.9535 27.8999 28.8318 29.1009 28.543C31.6701 27.9121 34.2393 26.4831 36.3981 24.2863C38.7088 21.9452 40.1378 19.1403 40.6547 16.3887C40.9892 17.6429 41.1412 18.8971 41.0956 20.1057Z" fill="url(#paint1_linear_814_496)"/>
<path d="M40.9377 28.764C38.1633 31.5765 33.6862 32.0706 29.1179 30.5123C30.2961 30.0943 31.4818 29.5318 32.6448 28.8401C34.9176 28.6804 37.0003 27.8215 38.5661 26.2328C40.1776 24.5986 40.9985 22.4399 41.0973 20.1063C41.143 18.8977 40.9909 17.6435 40.6565 16.3893C39.9876 13.9341 38.5813 11.4865 36.4834 9.42662C34.2411 7.20708 31.5655 5.80085 28.9202 5.23837C27.8409 5.01033 26.7691 4.91912 25.7353 4.97993C23.4018 5.10915 21.2582 5.96048 19.6468 7.59474C18.081 9.19098 17.26 11.2889 17.1308 13.5541C16.4543 14.7323 15.9146 15.9256 15.5118 17.1114C13.8851 12.5659 14.3108 8.08121 17.0852 5.26117C19.8596 2.44113 24.3367 1.95465 28.9126 3.5053C29.9768 3.87015 31.0486 4.34903 32.1051 4.92672C33.8686 5.89967 35.5865 7.17667 37.1675 8.72731C38.6422 10.1791 39.8659 11.7526 40.8389 13.3792C41.5306 14.5422 42.0931 15.728 42.5112 16.9062C44.1378 21.4593 43.7198 25.944 40.9377 28.764Z" fill="url(#paint2_linear_814_496)"/>
<path d="M29.1026 28.543C27.9016 28.8318 26.7083 28.9534 25.5605 28.8926C23.9186 27.9425 22.33 26.7415 20.8553 25.2896C19.2743 23.7314 17.9745 22.0363 16.9787 20.2881C16.9103 19.0795 17.0395 17.8253 17.3588 16.5635C17.9137 19.3075 19.3883 22.0971 21.7371 24.4003C23.9262 26.559 26.5182 27.9501 29.1026 28.543Z" fill="url(#paint3_linear_814_496)"/>
<path d="M20.9541 16.1913C20.9313 16.693 20.5057 17.0807 20.004 17.0655C19.5023 17.0427 19.107 16.617 19.1298 16.1153C19.1526 15.6136 19.5783 15.2184 20.08 15.2412C20.5817 15.2564 20.9693 15.682 20.9541 16.1913Z" fill="url(#paint4_linear_814_496)"/>
<path d="M20.9683 14.3737C20.9683 14.5333 20.8315 14.6549 20.6719 14.6473C20.5122 14.6397 20.3906 14.5105 20.3906 14.3509C20.3982 14.1913 20.535 14.0621 20.6947 14.0697C20.8543 14.0773 20.9759 14.2141 20.9683 14.3737Z" fill="url(#paint5_linear_814_496)"/>
<path d="M29.764 11.6221C29.7564 11.7969 29.612 11.9337 29.4372 11.9261C29.2623 11.9185 29.1255 11.7741 29.1331 11.5993C29.1407 11.4244 29.2927 11.2876 29.4676 11.2952C29.6348 11.3028 29.7716 11.4472 29.764 11.6221Z" fill="url(#paint6_linear_814_496)"/>
<path d="M23.9407 22.2108C23.9331 22.4616 23.7203 22.6516 23.4771 22.644C23.2262 22.6364 23.0286 22.4236 23.0438 22.1727C23.0514 21.9219 23.2642 21.7319 23.5075 21.7395C23.7583 21.7547 23.9559 21.9599 23.9407 22.2108Z" fill="url(#paint7_linear_814_496)"/>
<path d="M25.7256 23.6171C25.718 23.7919 25.5812 23.9211 25.4064 23.9135C25.2391 23.9059 25.1099 23.7691 25.1175 23.5943C25.1251 23.4271 25.2619 23.2979 25.4368 23.2979C25.604 23.3055 25.7332 23.4499 25.7256 23.6171Z" fill="url(#paint8_linear_814_496)"/>
<path d="M38.1632 20.098C38.148 20.4553 37.8516 20.7289 37.4867 20.7213C37.1295 20.7061 36.8558 20.4021 36.8634 20.0448C36.8786 19.6799 37.1827 19.4063 37.5399 19.4215C37.9048 19.4367 38.1784 19.7332 38.1632 20.098Z" fill="url(#paint9_linear_814_496)"/>
<path d="M33.6347 17.0805C33.5435 19.3913 31.59 21.1851 29.2792 21.0939C26.9761 20.9951 25.1746 19.0492 25.2734 16.7384C25.3646 14.4277 27.3105 12.6338 29.6213 12.725C31.932 12.8238 33.7259 14.7697 33.6347 17.0805Z" fill="url(#paint10_linear_814_496)"/>
<path d="M38.2712 17.6043C38.2636 17.7867 38.1115 17.9235 37.9291 17.9159C37.7543 17.9083 37.6099 17.7639 37.6175 17.5815C37.6251 17.3991 37.7771 17.2622 37.9595 17.2698C38.1344 17.2774 38.2788 17.4295 38.2712 17.6043Z" fill="url(#paint11_linear_814_496)"/>
<path d="M37.0523 15.4385C37.0523 15.5069 36.9915 15.5601 36.923 15.5601C36.8546 15.5601 36.7938 15.4993 36.8014 15.4309C36.8014 15.3624 36.8622 15.3016 36.9306 15.3092C36.9991 15.3092 37.0523 15.37 37.0523 15.4385Z" fill="url(#paint12_linear_814_496)"/>
<path d="M36.4425 17.7639C36.4349 18.0756 36.1764 18.3112 35.8648 18.3036C35.5607 18.2884 35.3175 18.03 35.3327 17.7183C35.3403 17.4143 35.6063 17.171 35.9104 17.1862C36.222 17.2014 36.4577 17.4599 36.4425 17.7639Z" fill="url(#paint13_linear_814_496)"/>
</g>
<defs>
<linearGradient id="paint0_linear_814_496" x1="-40.3079" y1="75.7743" x2="45.4159" y2="-14.7342" gradientUnits="userSpaceOnUse">
<stop stop-color="#7A42C7"/>
<stop offset="0.53" stop-color="#2D1F80"/>
<stop offset="1" stop-color="#538ACD"/>
</linearGradient>
<linearGradient id="paint1_linear_814_496" x1="-5.39013" y1="26.0634" x2="40.7134" y2="-22.6134" gradientUnits="userSpaceOnUse">
<stop stop-color="#7A42C7"/>
<stop offset="0.53" stop-color="#2D1F80"/>
<stop offset="1" stop-color="#538ACD"/>
</linearGradient>
<linearGradient id="paint2_linear_814_496" x1="39.1945" y1="48.5594" x2="-0.86744" y2="20.455" gradientUnits="userSpaceOnUse">
<stop stop-color="#7A42C7"/>
<stop offset="0.53" stop-color="#2D1F80"/>
<stop offset="1" stop-color="#538ACD"/>
</linearGradient>
<linearGradient id="paint3_linear_814_496" x1="37.8809" y1="43.724" x2="3.63875" y2="19.7024" gradientUnits="userSpaceOnUse">
<stop stop-color="#7A42C7"/>
<stop offset="0.53" stop-color="#2D1F80"/>
<stop offset="1" stop-color="#538ACD"/>
</linearGradient>
<linearGradient id="paint4_linear_814_496" x1="20.9533" y1="4.53824" x2="20.9533" y2="32.2825" gradientUnits="userSpaceOnUse">
<stop stop-color="#7A42C7"/>
<stop offset="0.53" stop-color="#2D1F80"/>
<stop offset="1" stop-color="#538ACD"/>
</linearGradient>
<linearGradient id="paint5_linear_814_496" x1="20.9713" y1="4.53723" x2="20.9713" y2="32.2816" gradientUnits="userSpaceOnUse">
<stop stop-color="#7A42C7"/>
<stop offset="0.53" stop-color="#2D1F80"/>
<stop offset="1" stop-color="#538ACD"/>
</linearGradient>
<linearGradient id="paint6_linear_814_496" x1="29.7671" y1="4.53732" x2="29.7671" y2="32.2817" gradientUnits="userSpaceOnUse">
<stop stop-color="#7A42C7"/>
<stop offset="0.53" stop-color="#2D1F80"/>
<stop offset="1" stop-color="#538ACD"/>
</linearGradient>
<linearGradient id="paint7_linear_814_496" x1="23.9436" y1="4.53754" x2="23.9436" y2="32.2819" gradientUnits="userSpaceOnUse">
<stop stop-color="#7A42C7"/>
<stop offset="0.53" stop-color="#2D1F80"/>
<stop offset="1" stop-color="#538ACD"/>
</linearGradient>
<linearGradient id="paint8_linear_814_496" x1="25.7287" y1="23.3013" x2="25.7287" y2="23.9154" gradientUnits="userSpaceOnUse">
<stop stop-color="#7A42C7"/>
<stop offset="0.53" stop-color="#2D1F80"/>
<stop offset="1" stop-color="#538ACD"/>
</linearGradient>
<linearGradient id="paint9_linear_814_496" x1="38.1667" y1="4.53799" x2="38.1667" y2="32.2824" gradientUnits="userSpaceOnUse">
<stop stop-color="#7A42C7"/>
<stop offset="0.53" stop-color="#2D1F80"/>
<stop offset="1" stop-color="#538ACD"/>
</linearGradient>
<linearGradient id="paint10_linear_814_496" x1="33.6379" y1="4.53807" x2="33.6379" y2="32.2825" gradientUnits="userSpaceOnUse">
<stop stop-color="#7A42C7"/>
<stop offset="0.53" stop-color="#2D1F80"/>
<stop offset="1" stop-color="#538ACD"/>
</linearGradient>
<linearGradient id="paint11_linear_814_496" x1="38.2688" y1="13.4835" x2="38.2688" y2="22.6962" gradientUnits="userSpaceOnUse">
<stop stop-color="#7A42C7"/>
<stop offset="0.53" stop-color="#2D1F80"/>
<stop offset="1" stop-color="#538ACD"/>
</linearGradient>
<linearGradient id="paint12_linear_814_496" x1="37.0523" y1="13.484" x2="37.0523" y2="22.6967" gradientUnits="userSpaceOnUse">
<stop stop-color="#7A42C7"/>
<stop offset="0.53" stop-color="#2D1F80"/>
<stop offset="1" stop-color="#538ACD"/>
</linearGradient>
<linearGradient id="paint13_linear_814_496" x1="36.4461" y1="4.5373" x2="36.4461" y2="32.282" gradientUnits="userSpaceOnUse">
<stop stop-color="#7A42C7"/>
<stop offset="0.53" stop-color="#2D1F80"/>
<stop offset="1" stop-color="#538ACD"/>
</linearGradient>
<clipPath id="clip0_814_496">
<rect width="58" height="34" fill="white"/>
</clipPath>
</defs>
</svg>
