<svg width="142" height="122" viewBox="0 0 142 122" fill="none" xmlns="http://www.w3.org/2000/svg">
<g clip-path="url(#clip0_814_881)">
<g clip-path="url(#clip1_814_881)">
<mask id="mask0_814_881" style="mask-type:alpha" maskUnits="userSpaceOnUse" x="1" y="0" width="141" height="122">
<path d="M141.25 52C141.25 90.6599 109.91 122 71.25 122C32.5901 122 1.25 90.6599 1.25 52C1.25 13.3401 32.5901 0 71.25 0C109.91 0 141.25 13.3401 141.25 52Z" fill="#BDBDBD"/>
</mask>
<g mask="url(#mask0_814_881)">
<path d="M49.6499 73.481C52.9726 71.2131 56.902 70 60.9248 70H78.8096C82.6862 70 86.4792 71.1266 89.7272 73.2427L110.035 86.4734C114.931 89.6635 118.187 94.8357 118.947 100.63L121.75 122H20.25L22.3357 100.796C22.9152 94.904 26.0751 89.5718 30.9648 86.2344L49.6499 73.481Z" fill="#484B4C"/>
<path d="M57.862 68.3853L59.7502 58H79.7502L81.6384 68.3853C81.7112 68.7856 81.9043 69.1541 82.192 69.4418L83.311 70.5608C84.1017 71.3515 84.0904 72.637 83.2859 73.4138L72.9376 83.4053C71.4246 84.8661 69.0388 84.9058 67.478 83.4961L56.3118 73.4105C55.4625 72.6434 55.4289 71.3213 56.2382 70.512L57.3084 69.4418C57.5961 69.1541 57.7892 68.7856 57.862 68.3853Z" fill="#E99167"/>
<path d="M58.0784 14.4044C58.2884 11.2894 60.3534 7.5444 63.6084 6.8794C64.0284 6.7744 63.8884 6.1444 63.4684 6.2144C59.9334 6.7044 57.3434 11.0444 57.2734 14.4044C57.3084 14.8944 58.0434 14.9294 58.0784 14.4044Z" fill="#261A1A"/>
<path d="M76.4176 17.7295C75.0876 17.5895 73.7576 17.7995 72.5676 18.3245C72.6376 18.1845 72.7426 18.0445 72.8476 17.9045C73.5476 16.8545 71.8676 15.8745 71.1676 16.9245C70.5726 17.7995 70.1526 18.7795 69.8726 19.7945C69.7326 20.3195 70.0126 20.7045 70.3976 20.8795C70.6776 21.2645 71.3076 21.4745 71.7976 21.0545C73.1276 19.9345 74.6676 19.3745 76.4176 19.5495C77.5726 19.6195 77.5376 17.8695 76.4176 17.7295Z" fill="#261A1A"/>
<path d="M89.5424 38.9044C90.5924 35.0194 91.6424 29.5944 92.7974 26.8644C93.9524 24.1344 95.0024 19.4794 92.6224 16.9244C90.2424 14.3694 86.9874 15.5244 87.3374 14.8244C87.6874 14.1244 89.8924 13.5994 89.5424 10.6944C89.1924 7.7894 83.3824 1.7344 73.9674 4.8844C64.5524 8.0344 58.7424 13.0744 57.6924 13.5994C56.6424 14.1244 55.7674 12.4444 53.3874 13.8794C51.0074 15.2794 47.9274 16.1544 48.2774 20.4594C48.6274 24.7644 49.8524 37.7844 51.6374 40.6894C53.3874 43.5944 70.5374 47.2694 70.5374 47.2694L83.9074 42.6844L89.5424 38.9044Z" fill="#261A1A"/>
<path d="M58.3906 65.5L59.7506 58L80.513 58.96C80.513 58.96 80.9306 71.73 58.3906 65.5Z" fill="#1A1A1A"/>
<path d="M54.787 35.1594C54.787 35.1944 54.787 35.1944 54.787 35.2294C50.727 34.5994 50.132 38.2044 50.272 40.1294C50.447 42.8244 49.817 48.3193 54.507 48.4594C54.857 51.0844 54.542 52.3442 55.207 54.8993C55.802 57.1743 59.337 60.5694 60.597 61.9342C63.012 64.5592 69.172 65.3993 72.217 64.8742C77.432 63.9642 81.107 60.9893 83.242 57.5943C84.922 54.9343 84.677 53.0443 85.482 49.8594C85.482 49.8594 90.277 49.4044 90.872 41.9844C91.047 39.7094 89.332 35.4743 87.232 36.4894C87.687 34.6694 88.737 31.1694 87.757 30.7494C85.237 29.6294 83.207 25.6394 82.192 25.0444C80.617 24.1694 76.487 24.3444 75.927 24.3444C73.617 24.3094 72.182 19.3044 70.642 20.9844C68.997 22.8044 64.797 26.1294 62.767 27.0744C60.912 27.9494 58.707 29.5244 56.362 29.9444C56.117 29.9794 55.837 29.8044 55.627 29.9444C55.417 30.0844 55.312 30.3294 55.277 30.5744C54.927 31.6944 54.857 34.0744 54.787 35.1594Z" fill="#E99167"/>
<path d="M68.6808 48.7738C68.2958 48.1438 68.8908 47.5138 69.4858 47.6888C69.8008 47.7238 70.1158 47.7588 70.4308 47.7938C70.9908 47.7938 71.4108 48.4588 70.9908 48.9838C70.8508 49.1588 70.6058 49.2638 70.3608 49.2288C69.9758 49.1938 69.6258 49.1588 69.2408 49.0888C68.9958 49.0888 68.7858 48.9838 68.6808 48.7738Z" fill="#D5745C"/>
<path d="M65.1477 54.3749C65.1477 54.3749 74.7377 53.5698 74.5977 54.1998C74.3527 55.2148 72.4977 58.4349 69.9427 58.4349C67.1427 58.4349 62.8727 54.8649 65.1477 54.3749Z" fill="white"/>
<path d="M77.1166 29.8399C78.0616 30.2249 79.0416 30.4349 79.9866 30.8549C80.9316 31.2749 81.8066 31.8349 82.7516 32.2899C83.5916 32.7099 82.9966 34.0399 82.1566 33.6199C81.2466 33.1649 80.3366 32.6049 79.4266 32.1849C78.4816 31.7649 77.5016 31.5549 76.5566 31.1699C75.6816 30.8549 76.2416 29.5249 77.1166 29.8399Z" fill="#261A1A"/>
<path d="M58.3224 32.6741C59.2324 32.2541 60.1074 31.6941 61.0524 31.3091C61.9974 30.9241 63.0124 30.6791 63.9924 30.3291C64.8674 30.0141 65.4274 31.3441 64.5524 31.6591C63.5724 32.0091 62.5574 32.2541 61.6124 32.6391C60.6674 33.0241 59.8274 33.5841 58.8824 34.0041C58.0074 34.4241 57.4824 33.0941 58.3224 32.6741Z" fill="#261A1A"/>
<path d="M77.5378 38.9751C77.7828 38.6951 78.0628 38.5552 78.4128 38.5902C78.4478 38.5902 78.4828 38.5902 78.5178 38.5902H78.5528H78.5878C79.7428 38.6602 80.1278 40.2001 79.6378 41.0751C79.5678 41.2851 79.4628 41.4951 79.2878 41.6001C79.1128 41.7401 78.9028 41.7751 78.6578 41.7751C78.6228 41.7751 78.6228 41.8102 78.5878 41.8102C78.0628 41.9502 77.6778 41.6702 77.4328 41.2152C76.9428 40.6202 76.9778 39.6051 77.5378 38.9751Z" fill="#1A1A1A"/>
<path d="M61.6111 38.5898C62.0661 37.9248 62.9411 37.7847 63.5711 38.2747C63.6411 38.3097 63.6761 38.3798 63.7111 38.4148C63.8511 38.5898 63.9561 38.7998 63.9561 39.0448C63.9561 39.0798 63.9561 39.1148 63.9561 39.1148C63.9561 39.1148 63.9561 39.1147 63.9561 39.1497C63.9211 39.5697 63.8511 40.0247 63.6061 40.3747C63.1511 41.0747 62.1711 41.0398 61.6461 40.4448C61.2261 39.9198 61.2611 39.1498 61.6111 38.5898Z" fill="#1A1A1A"/>
<path opacity="0.25" d="M78.4831 44.8198C81.054 44.8198 83.1381 42.7357 83.1381 40.1648C83.1381 37.5939 81.054 35.5098 78.4831 35.5098C75.9122 35.5098 73.8281 37.5939 73.8281 40.1648C73.8281 42.7357 75.9122 44.8198 78.4831 44.8198Z" fill="#FCFCFC"/>
<path d="M87.3034 36.4899C87.3034 36.4899 84.5034 37.7849 83.2434 37.9249C82.2984 35.7199 80.0934 34.3199 77.7134 34.6349C75.8934 34.8799 74.4234 36.1049 73.7234 37.7149C71.8684 36.1749 69.1034 36.1399 67.2134 37.2599C67.1784 37.4349 67.2134 38.3799 67.6334 38.0999C69.2084 37.1899 71.5884 37.1899 73.1634 38.4849C73.2334 38.5549 73.3384 38.5899 73.4084 38.5899C73.2334 39.2899 73.1634 40.0599 73.2684 40.8299C73.6884 43.8749 76.3484 46.0099 79.2184 45.5899C82.0884 45.2049 84.0834 42.4049 83.6634 39.3949C83.6284 39.1849 83.5934 39.0099 83.5584 38.8349C84.7134 38.6949 87.3034 37.4699 87.3034 37.4699V36.4899ZM78.4834 44.7849C75.9284 44.7849 73.8284 42.7199 73.8284 40.1299C73.8284 37.5399 75.8934 35.4749 78.4834 35.4749C81.0734 35.4749 83.1384 37.5399 83.1384 40.1299C83.1384 42.7199 81.0384 44.7849 78.4834 44.7849Z" fill="#484B4C"/>
<path opacity="0.5" d="M80.0931 35.6143C80.0931 35.6143 74.8781 42.5793 75.4731 43.1393C76.0681 43.7343 76.6281 44.2943 76.6281 44.2943L80.6881 36.1742L80.0931 35.6143Z" fill="white"/>
<path opacity="0.5" d="M81.2475 37.3643L78.9375 42.5793L81.8075 38.5193L81.2475 37.3643Z" fill="white"/>
<path opacity="0.25" d="M62.487 44.2249C65.0579 44.2249 67.142 42.1408 67.142 39.5699C67.142 36.9991 65.0579 34.915 62.487 34.915C59.9161 34.915 57.832 36.9991 57.832 39.5699C57.832 42.1408 59.9161 44.2249 62.487 44.2249Z" fill="#FCFCFC"/>
<path d="M67.247 37.3644C66.302 35.1594 64.097 33.7594 61.717 34.0744C59.897 34.3194 58.427 35.5444 57.727 37.1544C57.552 37.4344 57.482 37.7844 57.412 38.0294C57.237 38.7294 57.167 39.4994 57.272 40.2694C57.692 43.3144 60.352 45.4494 63.222 45.0294C66.092 44.6444 68.087 41.8444 67.667 38.8344C67.632 38.6244 67.597 38.4494 67.562 38.2744C67.422 37.6794 67.317 37.7144 67.247 37.3644ZM62.487 44.2244C59.932 44.2244 57.832 42.1594 57.832 39.5694C57.832 37.0144 59.897 34.9144 62.487 34.9144C65.042 34.9144 67.142 36.9794 67.142 39.5694C67.107 42.1244 65.042 44.2244 62.487 44.2244Z" fill="#484B4C"/>
<path opacity="0.5" d="M64.0618 35.0547C64.0618 35.0547 58.8468 42.0197 59.4418 42.5797C60.0368 43.1747 60.5968 43.7347 60.5968 43.7347L64.6568 35.6147L64.0618 35.0547Z" fill="white"/>
<path opacity="0.5" d="M65.2513 36.7695L62.9062 41.9845L65.8112 37.9245L65.2513 36.7695Z" fill="white"/>
<path d="M54.7534 34.2148L58.3584 36.1398L57.9034 37.0148L54.6484 35.1247L54.7534 34.2148Z" fill="#484B4C"/>
<path d="M39.4204 109.954C39.2513 112.153 39.1255 114.553 38.75 118H39.75C40.1255 114.553 40.2122 112.32 40.3401 110.111C40.5639 106.57 39.649 106.208 39.4204 109.954Z" fill="#2E3233"/>
<path d="M101.978 109.954C102.147 112.153 102.273 114.553 102.648 118H101.648C101.273 114.553 101.186 112.32 101.058 110.111C100.835 106.57 101.75 106.208 101.978 109.954Z" fill="#2E3233"/>
<path d="M56.249 70.5L56.2083 70.561C55.6575 71.3873 55.7964 72.4926 56.5345 73.157L67.4791 83.0071C69.0396 84.4115 71.4203 84.3706 72.9315 82.9133L83.0467 73.1594C83.7428 72.4881 83.8589 71.4149 83.3225 70.6103L83.249 70.5L84.4204 70.8347C85.456 71.1306 85.7836 72.4361 85.0104 73.1859L72.9898 84.8423C71.4559 86.3297 69.0238 86.349 67.4665 84.886L55.2709 73.4294C54.2761 72.4949 54.5644 71.0235 55.8676 70.6177C56.1001 70.5453 56.249 70.5 56.249 70.5Z" fill="#2E3233"/>
</g>
</g>
</g>
<defs>
<clipPath id="clip0_814_881">
<rect width="141" height="122" fill="white" transform="translate(0.5)"/>
</clipPath>
<clipPath id="clip1_814_881">
<rect width="141" height="122" fill="white" transform="translate(0.5)"/>
</clipPath>
</defs>
</svg>
